<svg width="39" height="48" viewBox="0 0 39 48" fill="none" xmlns="http://www.w3.org/2000/svg">
<path fill-rule="evenodd" clip-rule="evenodd" d="M28.4099 0.841976C26.4332 1.03248 24.1125 2.17742 22.4842 3.76547C20.7423 5.4644 19.5652 7.82607 19.3589 10.0361C19.3272 10.3754 19.3417 11.183 19.3836 11.4086L19.4119 11.5611L19.6081 11.5889C19.8944 11.6296 20.599 11.6051 20.9609 11.542C22.3421 11.3012 23.7804 10.6215 25.0659 9.60206C25.4546 9.29383 26.1733 8.56643 26.5271 8.12314C27.0422 7.47793 27.4795 6.78843 27.8325 6.06492C28.3466 5.01118 28.6513 4.01433 28.8178 2.84037C28.866 2.50108 28.8881 1.44391 28.8528 1.17093C28.8041 0.793997 28.8133 0.81602 28.7053 0.819542C28.6532 0.821234 28.5203 0.831342 28.4099 0.841976ZM27.5244 12.1525C26.9921 12.1839 26.2702 12.3003 25.6376 12.4566C24.8049 12.6624 24.18 12.8748 22.7104 13.4515C21.5181 13.9194 21.1483 14.0497 20.6686 14.1711C20.0601 14.3252 19.5264 14.3214 18.8684 14.1582C18.4025 14.0427 18.062 13.9216 16.8375 13.4361C15.6592 12.9689 15.2295 12.8133 14.6719 12.652C13.3141 12.2593 12.2306 12.172 10.8642 12.345C9.3909 12.5315 7.9654 13.0198 6.67915 13.7785C4.17848 15.2535 2.31028 17.6356 1.30439 20.6319C0.561437 22.845 0.301323 25.3537 0.528963 28.1107C0.737414 30.6351 1.35454 33.3147 2.31182 35.8519C2.92629 37.4805 3.75728 39.1962 4.5826 40.5401C5.33717 41.7688 6.85801 43.8317 7.80287 44.9081C9.56039 46.9103 11.1904 47.7631 13.0117 47.6331C13.9707 47.5647 14.5787 47.3937 16.0549 46.7778C17.0072 46.3804 17.4049 46.2318 17.8975 46.0894C19.3867 45.6587 21.0695 45.6209 22.5275 45.9852C23.1376 46.1378 23.4888 46.2647 24.5285 46.7089C25.8181 47.2598 26.3121 47.4155 27.1241 47.527C27.4847 47.5765 28.2578 47.5957 28.5649 47.5628C29.9841 47.4108 31.2792 46.7062 32.5676 45.3851C33.3538 44.5789 34.1492 43.5653 35.2929 41.9123C36.5537 40.0899 37.6765 37.8652 38.3746 35.8062C38.5867 35.1805 38.5881 35.1745 38.5201 35.1535C38.2899 35.0823 37.409 34.5988 36.9464 34.2898C34.3035 32.5243 32.7078 29.9791 32.363 26.9787C32.0761 24.4831 32.6266 22.1095 33.9619 20.0837C34.736 18.9094 35.8546 17.7896 37.0551 16.9872C37.2091 16.8843 37.3352 16.7889 37.3352 16.7754C37.3352 16.7367 37.0213 16.3165 36.7487 15.9905C34.8215 13.6851 32.0978 12.3604 28.8736 12.1603C28.5265 12.1387 27.8264 12.1347 27.5244 12.1525Z" fill="#2D2D2D"/>
</svg>
