<svg width="215" height="35" viewBox="0 0 215 35" fill="none" xmlns="http://www.w3.org/2000/svg">
<path fill-rule="evenodd" clip-rule="evenodd" d="M174.536 12.4076V0.761113L174.538 0.758496C174.902 0.640722 179.699 0.604082 180.417 0.703535C180.516 1.05947 180.534 33.7011 180.427 34.1905H174.557C174.547 33.8128 174.548 33.4379 174.549 33.0529V33.0516C174.55 32.69 174.551 32.3194 174.544 31.9293L174.501 31.9699L174.474 31.995L174.421 32.0443C174.361 32.1 174.315 32.1421 174.274 32.1884C172.908 33.7351 171.186 34.5438 169.129 34.6328C167.14 34.7192 165.229 34.3868 163.455 33.4499C161.329 32.3297 159.929 30.5762 159.047 28.3751C158.364 26.6713 158.076 24.889 158.016 23.0674C157.945 20.9397 158.163 18.8433 158.867 16.8176C159.581 14.7709 160.72 13.0253 162.512 11.7533C163.766 10.8609 165.164 10.3165 166.682 10.1019C167.372 10.005 168.074 9.91867 168.77 9.92914C170.906 9.96578 172.785 10.6698 174.313 12.2009C174.35 12.2398 174.39 12.2758 174.456 12.3358L174.459 12.3383L174.536 12.4076ZM171.693 29.0739C173.013 28.4903 173.874 27.4539 174.436 26.1557L174.434 26.1584C174.975 24.9126 175.146 23.5961 175.172 21.9394C175.163 21.8453 175.154 21.7291 175.144 21.5971V21.5968L175.144 21.5953V21.595L175.144 21.5935V21.5933L175.144 21.5917C175.117 21.2252 175.08 20.7374 175.002 20.2566C174.771 18.8538 174.279 17.5609 173.285 16.4983C171.604 14.7055 168.856 14.4255 166.862 15.8623C165.831 16.6056 165.179 17.6263 164.781 18.8145C164.166 20.6492 164.119 22.5257 164.46 24.4153C164.656 25.5067 165.043 26.5248 165.705 27.4277C167.111 29.3409 169.547 30.0213 171.693 29.0739ZM47.1046 26.5145C48.4995 21.1466 49.8945 15.7762 51.2947 10.3847V10.3821L52.7616 10.341C54.137 10.3024 55.5125 10.2637 56.9321 10.2251L56.5135 11.538C54.1134 19.0646 51.7267 26.5491 49.3423 34.0337H44.155C42.8101 29.0047 41.4652 23.9835 40.1203 18.9623L40.1193 18.9587C40.0879 18.9613 40.0539 18.9639 40.0198 18.9639L39.0649 22.5641C38.0379 26.436 37.0104 30.3094 35.9815 34.1934H30.7995L30.1471 32.147C27.8411 24.9132 25.5323 17.6708 23.2148 10.3978H29.1532C30.5482 15.7709 31.9432 21.1414 33.3381 26.5119C33.3495 26.5128 33.3608 26.5139 33.3722 26.5151C33.3948 26.5174 33.4175 26.5197 33.4402 26.5197C34.1098 23.8438 34.7801 21.1673 35.4511 18.4881L35.461 18.4483C36.132 15.769 36.8036 13.087 37.4759 10.4004H42.9668C43.5593 12.7682 44.1518 15.1339 44.7441 17.4987L44.7542 17.539L44.7618 17.5692L44.7622 17.5709L44.7626 17.5725C45.5089 20.5521 46.2548 23.5303 46.9999 26.5093C47.0339 26.5119 47.0705 26.5145 47.1046 26.5145ZM78.6676 12.9976L78.6631 13.0153C78.4339 13.9042 78.2051 14.7919 77.977 15.6789C77.825 16.2716 77.674 16.8643 77.5232 17.4569L77.5224 17.46L77.5223 17.4602L77.5223 17.4604L77.5222 17.4607L77.5221 17.4609C77.211 18.683 76.8999 19.9047 76.5794 21.1253C76.4751 21.5218 76.3729 21.919 76.2707 22.3164L76.2702 22.3184L76.2701 22.3188C75.9084 23.7247 75.5465 25.1318 75.0876 26.5167C74.4148 23.8047 73.7421 21.092 73.0693 18.3794L73.0577 18.3325C72.3891 15.6366 71.7205 12.9408 71.0519 10.2456H65.5636C64.2603 15.6972 62.9648 21.1227 61.6692 26.5507C61.6352 26.5533 61.6038 26.556 61.5698 26.5612C61.029 25.0187 60.4889 23.4755 59.9487 21.9324L59.9418 21.9125C59.4046 20.3779 58.8675 18.8434 58.3297 17.3094H58.2303C58.1812 17.4329 58.1293 17.5557 58.0774 17.6785L58.0773 17.6787L58.0772 17.6788L58.0772 17.6789L58.0772 17.6789L58.0772 17.679L58.0771 17.6791L58.0771 17.6791L58.0771 17.6792C57.963 17.949 57.8489 18.219 57.7644 18.4976C57.4679 19.4883 57.1772 20.4811 56.8867 21.4739L56.886 21.4761L56.886 21.4763C56.6279 22.3579 56.3698 23.2395 56.1077 24.1193C56.0318 24.3758 56.0344 24.6035 56.1156 24.86C56.8053 27.0502 57.4908 29.2432 58.1761 31.4359L58.1765 31.437L58.1769 31.4381L58.179 31.445C58.4263 32.2363 58.6737 33.0276 58.9212 33.8187C58.952 33.915 58.9927 34.0084 59.0309 34.0959L59.031 34.0961L59.0565 34.155L59.0704 34.1877H64.2236C65.2636 30.2691 66.299 26.363 67.3332 22.4608L68.2672 18.9373C68.2868 18.9373 68.3076 18.9397 68.328 18.9421L68.3394 18.9434L68.3562 18.9452C69.109 21.7868 69.8626 24.6276 70.6161 27.4681C71.2117 29.7133 71.8073 31.9584 72.4024 34.2034H77.6865C78.0058 33.5151 85.2345 10.578 85.2423 10.2325H79.3876H79.3798C79.1423 11.156 78.9048 12.0775 78.6676 12.9976ZM106.452 15.3409C106.607 14.7324 106.762 14.1244 106.918 13.5171V13.525C107.057 12.9882 107.197 12.4522 107.337 11.9148L107.34 11.9009C107.484 11.3503 107.627 10.7983 107.771 10.243H113.683C113.666 10.3064 113.651 10.3674 113.637 10.4265C113.608 10.5405 113.582 10.6473 113.547 10.7507C112.78 13.1232 112.014 15.4964 111.247 17.8695C110.48 20.2426 109.713 22.6158 108.946 24.9883C108.474 26.4459 108.002 27.9042 107.53 29.3625C107.059 30.8211 106.587 32.2796 106.114 33.7375L106.094 33.8004L106.07 33.8783L106.07 33.879C106.015 34.0534 105.988 34.1412 105.928 34.1851C105.868 34.2294 105.775 34.2288 105.587 34.2275C105.551 34.2272 105.513 34.227 105.471 34.227H101.171C101.1 34.227 101.029 34.2227 100.943 34.2175C100.895 34.2146 100.842 34.2115 100.783 34.2086C99.4354 29.1208 98.0875 24.033 96.737 18.9452L96.6507 18.9399C95.8153 22.0869 94.9809 25.2338 94.145 28.3863C93.6323 30.3202 93.1189 32.2562 92.6045 34.1955H87.4225L87.309 33.8552L87.3081 33.8527L87.3045 33.8419C87.0803 33.1694 86.8582 32.5034 86.6399 31.8375C86.4185 31.1641 86.1975 30.4904 85.9766 29.8168L85.9748 29.8115C85.4389 28.1777 84.9029 26.5437 84.3603 24.9124C84.2661 24.6271 84.2609 24.3732 84.3551 24.0853C84.6561 23.1562 84.9525 22.2252 85.2489 21.2941C85.5453 20.363 85.8417 19.432 86.1426 18.5029C86.2735 18.0972 86.4567 17.7099 86.7132 17.3094L89.9559 26.5664L89.9632 26.5659C89.9944 26.5635 90.0236 26.5612 90.0527 26.5612C90.8045 23.4115 91.5572 20.2618 92.3103 17.1105L92.3269 17.0408C92.8686 14.7741 93.4105 12.5066 93.9524 10.2378H99.4354L103.471 26.5062C103.797 25.6779 104.014 24.8233 104.231 23.9698C104.288 23.7472 104.344 23.5247 104.403 23.3028C104.591 22.5897 104.775 21.8756 104.958 21.1617C105.055 20.783 105.153 20.4044 105.251 20.0261C105.528 18.9504 105.806 17.8747 106.08 16.7965C106.205 16.3112 106.328 15.8259 106.452 15.3409ZM20.2024 16.1843C19.4251 13.3263 17.6559 11.4001 14.8137 10.5024C13.8558 10.1988 12.8691 10.0575 11.8667 9.97371C10.2283 9.835 8.62399 9.95539 7.06414 10.4841C4.44957 11.3713 2.60445 13.0594 1.72769 15.7211C1.66679 15.9072 1.62324 16.0992 1.58013 16.2893C1.55839 16.3851 1.53676 16.4804 1.51308 16.5743C2.27206 16.836 6.04867 17.6264 6.39414 17.5976C6.41802 17.5461 6.44168 17.494 6.4655 17.4415L6.46553 17.4415L6.46555 17.4414L6.46558 17.4414L6.4656 17.4413L6.46563 17.4412L6.46564 17.4412C6.52531 17.3098 6.58594 17.1762 6.65324 17.0454C7.11649 16.1634 7.79957 15.5195 8.76008 15.2186C10.1446 14.7841 11.5265 14.8443 12.8717 15.3677C13.7903 15.7263 14.3975 16.4172 14.5729 17.3961C14.6524 17.8462 14.6783 18.3064 14.7039 18.7628C14.7154 18.967 14.7268 19.1705 14.743 19.372C14.6919 19.396 14.657 19.4142 14.6317 19.4274C14.5935 19.4473 14.5771 19.4558 14.5598 19.4558C14.3846 19.4636 14.2093 19.4663 14.0341 19.4689L14.0339 19.4689L14.0337 19.4689C13.5053 19.4779 12.9766 19.4738 12.4481 19.4697C11.1311 19.4595 9.81467 19.4493 8.5036 19.6416C6.93067 19.8719 5.43625 20.3273 4.07793 21.1701C2.5207 22.1358 1.39792 23.4496 0.869248 25.2293C0.518544 26.4123 0.492372 27.6084 0.722685 28.8149C1.23304 31.5054 2.75101 33.3191 5.38652 34.1487C6.71606 34.5675 8.077 34.6041 9.44579 34.4052C11.6678 34.0833 13.4894 33.0364 14.9314 31.3248C14.9718 31.2771 14.9967 31.2152 15.0215 31.1537C15.0321 31.1274 15.0427 31.1012 15.0544 31.0761C15.0963 31.1023 15.1408 31.1285 15.1827 31.152C15.3784 32.1072 15.5742 33.0598 15.7699 34.0124L15.7701 34.0133L15.7715 34.0205H20.6264L20.6309 33.951L20.6351 33.8886C20.6429 33.7725 20.65 33.6688 20.65 33.5651C20.65 32.0479 20.6503 30.531 20.6506 29.0142V29.0139V29.0136V29.0133V29.013V29.0127C20.6512 25.9799 20.6517 22.9474 20.65 19.9138C20.65 18.6549 20.5348 17.4039 20.2024 16.1817V16.1843ZM13.5836 27.6371C12.7199 28.6134 11.6102 29.1577 10.3383 29.388C9.74153 29.4953 9.14219 29.5555 8.54547 29.3828C7.46196 29.0687 6.7841 28.1109 6.84168 26.9802C6.91235 25.601 7.75508 24.6169 9.14743 24.329C9.53216 24.2479 9.93259 24.2139 10.3278 24.2112C11.2176 24.2025 12.1075 24.2054 12.9973 24.2083C13.4422 24.2098 13.8872 24.2112 14.3321 24.2112C14.4038 24.2112 14.4755 24.2183 14.5551 24.226C14.5945 24.2299 14.6359 24.2339 14.6802 24.2374C14.7796 25.5408 14.4368 26.674 13.5862 27.6398L13.5836 27.6371ZM129.826 10.696C132.42 11.6879 133.977 13.5958 134.678 16.2444L134.681 16.2418C134.985 17.3855 135.105 18.5554 135.105 19.7358V33.5781C135.105 33.6804 135.098 33.7841 135.09 33.8997L135.09 33.9008L135.09 33.9028C135.087 33.943 135.084 33.9847 135.082 34.0283H130.237C130.038 33.0521 129.842 32.0942 129.633 31.0735C129.616 31.0906 129.601 31.1066 129.587 31.1215C129.561 31.1487 129.538 31.1726 129.517 31.1943L129.517 31.1952L129.516 31.1956C129.465 31.2491 129.426 31.2893 129.389 31.3326C127.947 33.0494 126.12 34.0885 123.901 34.4051C122.168 34.6538 120.47 34.5281 118.863 33.7692C116.808 32.7956 115.636 31.1389 115.214 28.9404C114.94 27.5141 114.974 26.0877 115.505 24.7111C116.06 23.2664 117.033 22.1593 118.316 21.3113C119.538 20.5026 120.894 20.0184 122.328 19.7462C123.425 19.5395 124.534 19.4636 125.652 19.4688C126.412 19.4723 127.172 19.4712 127.945 19.47H127.945H127.946H127.946H127.946C128.338 19.4694 128.734 19.4688 129.135 19.4688L129.14 19.3616C129.186 18.3604 129.231 17.3878 128.69 16.4957C128.319 15.878 127.764 15.4907 127.099 15.2682C125.958 14.8887 124.785 14.8312 123.616 15.0955C122.425 15.3651 121.572 16.0848 121.046 17.1866C121.022 17.2313 121.002 17.2771 120.982 17.3232C120.97 17.35 120.959 17.3769 120.946 17.4039C120.912 17.4745 120.878 17.5452 120.818 17.6708C119.938 17.4785 119.058 17.287 118.174 17.0945L118.173 17.0942L118.169 17.0934L118.163 17.092L118.155 17.0904C117.434 16.9333 116.709 16.7755 115.979 16.6161C116.102 15.8309 116.353 15.1348 116.701 14.4752C117.808 12.3736 119.564 11.0702 121.81 10.3924C123.288 9.94486 124.799 9.8454 126.34 9.97365C127.536 10.0757 128.706 10.2668 129.826 10.696ZM123.668 29.4822C124.574 29.5031 125.435 29.3121 126.256 28.9404H126.259C128.235 28.0454 129.3 26.3154 129.135 24.2661C129.121 24.2607 129.109 24.2553 129.098 24.2503L129.081 24.2424C129.054 24.2301 129.036 24.2216 129.018 24.2216C128.571 24.2224 128.124 24.2207 127.677 24.2191L127.677 24.2191H127.676C126.579 24.215 125.483 24.211 124.388 24.2426C123.657 24.2635 122.943 24.452 122.312 24.8655C121.441 25.4413 121.074 26.2892 121.174 27.2811C121.294 28.5138 122.422 29.456 123.668 29.4822ZM200.862 21.9212C199.844 21.1046 198.679 20.5655 197.465 20.1205C196.984 19.945 196.499 19.778 196.014 19.6109L196.014 19.6109C195.328 19.3745 194.642 19.138 193.966 18.8774C193.516 18.702 193.068 18.4481 192.704 18.1341C191.686 17.2599 191.859 15.7865 193.018 15.1243C193.487 14.8574 194.005 14.7448 194.534 14.7945C195.926 14.9254 197.085 15.5221 197.994 16.5926C198.042 16.6494 198.091 16.7052 198.146 16.7676L198.151 16.7736L198.153 16.7752L198.263 16.9014C198.847 16.3689 199.426 15.8411 200.004 15.3132L200.008 15.3095L200.026 15.2931C200.598 14.7716 201.17 14.2501 201.747 13.7241C201.738 13.7106 201.729 13.6973 201.72 13.6841C201.703 13.6578 201.686 13.6319 201.669 13.6066L201.621 13.5317C201.55 13.4223 201.485 13.3216 201.414 13.2242C199.587 10.6672 195.837 9.29582 193.298 9.69363C191.003 10.0548 189.161 11.0886 187.891 13.0515C186.203 15.6582 186.276 20.063 190.095 22.1698C190.92 22.6255 191.803 22.9879 192.678 23.3472L192.691 23.3528C193.146 23.5392 193.608 23.7083 194.07 23.8773C194.607 24.0738 195.143 24.2702 195.67 24.4939C196.146 24.6954 196.596 24.9885 197.004 25.3078C197.517 25.7082 197.69 26.284 197.614 26.9305C197.488 28.014 196.889 28.7154 195.85 29.0033C194.261 29.443 192.827 29.1184 191.584 28.0323C190.888 27.4251 190.409 26.6583 190.016 25.8339C189.948 25.6896 189.879 25.5453 189.801 25.3843L189.736 25.2502L188.169 26.1085C187.128 26.6788 186.087 27.2491 185.018 27.8334C185.073 27.9519 185.124 28.0666 185.174 28.1781C185.275 28.4041 185.37 28.6168 185.481 28.8201C187.708 32.9186 192.249 35.0202 196.884 33.9236C200.53 33.0599 202.851 30.1889 202.958 26.5117C203.013 24.6404 202.336 23.1015 200.862 21.9238V21.9212ZM146.335 10.2722V13.9415V13.9441C148.806 10.4606 152.03 9.20699 156.215 10.3612C155.972 11.6188 155.732 12.8558 155.492 14.0886L155.486 14.1216L155.482 14.1421L155.158 15.8075C155.003 15.7441 154.854 15.6766 154.709 15.6106L154.707 15.61L154.707 15.6099C154.398 15.4695 154.104 15.3361 153.794 15.2632C152.01 14.8444 150.421 15.271 149.07 16.5063C148.081 17.4119 147.508 18.5765 147.105 19.8354C146.561 21.5313 146.367 23.2822 146.354 25.0541C146.339 27.0746 146.341 29.0938 146.344 31.1136V31.1139V31.1194C146.345 31.897 146.346 32.6747 146.346 33.4527V34.0154C145.139 34.1102 143.938 34.13 142.727 34.15C141.967 34.1625 141.203 34.1751 140.431 34.2064V10.3062C140.763 10.1963 145.645 10.1649 146.335 10.2722ZM214.424 30.3957L214.427 30.4006L214.427 30.4009C214.427 30.3249 214.427 30.2492 214.426 30.1736L214.426 30.1733L214.426 30.1704C214.426 30.0205 214.425 29.871 214.427 29.7204L214.427 29.7201C214.425 29.8718 214.426 30.0224 214.426 30.1733" fill="#2D2D2D"/>
</svg>
