<svg width="55" height="35" viewBox="0 0 55 35" fill="none" xmlns="http://www.w3.org/2000/svg">
<path d="M22.467 16.0185C22.467 16.0185 27.5474 15.6413 27.5474 9.68372C27.5474 3.72573 23.391 0.818115 18.1259 0.818115H0.800781V34.1122H18.1259C18.1259 34.1122 28.7023 34.4463 28.7023 24.2853C28.7023 24.2854 29.1634 16.0185 22.467 16.0185ZM16.8789 6.73577H18.1259C18.1259 6.73577 20.4809 6.73577 20.4809 10.1999C20.4809 13.6636 19.096 14.1657 17.525 14.1657H8.43447V6.73577H16.8789ZM17.6364 28.1948H8.43447V19.2973H18.1259C18.1259 19.2973 21.636 19.2513 21.636 23.8697C21.636 27.764 19.0143 28.1654 17.6364 28.1948ZM42.8078 9.28912C30.0039 9.28912 30.0153 22.0817 30.0153 22.0817C30.0153 22.0817 29.1368 34.8087 42.8078 34.8087C42.8078 34.8087 54.2001 35.4595 54.2001 25.9552H48.3412C48.3412 25.9552 48.5366 29.5344 43.0032 29.5344C43.0032 29.5344 37.1433 29.9271 37.1433 23.742H54.3955C54.3955 23.7419 56.2832 9.28912 42.8078 9.28912ZM37.0789 19.2973C37.0789 19.2973 37.7943 14.1656 42.9379 14.1656C48.0805 14.1656 48.016 19.2973 48.016 19.2973H37.0789ZM49.3809 6.87949H35.6445V2.77957H49.3809V6.87949Z" fill="#2D2D2D"/>
</svg>
