<svg width="140" height="35" viewBox="0 0 140 35" fill="none" xmlns="http://www.w3.org/2000/svg">
<path d="M139.234 27.6585C133.426 37.5077 124.225 34.65 121.46 32.4116C120.284 33.2107 118.221 34.9597 115.472 34.7546C109.615 34.3362 107.523 25.9681 107.523 25.9681C106.655 26.307 105.741 26.5116 104.811 26.5748C104.811 29.0309 102.678 34.8927 96.9538 34.8174C90.5313 34.7337 89.2217 25.1606 89.2217 25.1606C89.2217 25.1606 88.5815 26.0476 86.1506 26.9305C86.2719 25.0435 86.1841 34.5287 78.4854 34.6668C72.3976 34.7756 70.7533 25.01 70.7533 25.01C69.8824 25.7912 68.8043 26.3041 67.6488 26.487C67.7785 24.5707 67.5693 34.6961 59.8664 34.6626C54.6615 34.6417 52.8833 28.6459 53.0213 27.8133C53.1971 26.7547 51.264 34.809 46.2055 34.6835C44.1135 34.6208 42.5654 33.1103 41.6031 31.0978C40.2976 32.5915 38.3981 34.6835 36.2726 34.6835C32.4526 34.6835 30.7706 31.4869 31.0551 22.3657C31.0802 21.282 31.0007 20.8594 29.9254 20.6921C29.2811 20.5833 28.62 20.3824 27.9171 20.2737C27.6911 21.0226 25.7916 34.4367 19.2519 34.6919C17.0595 34.7756 15.8586 32.876 14.8712 31.466C13.3608 33.466 11.365 34.7546 8.52819 34.7546C3.71654 34.7546 0.44043 30.8635 0.44043 26.0686C0.44043 21.2737 3.71654 17.3825 8.52819 17.3825C9.16641 17.3811 9.79927 17.4989 10.3943 17.7298C8.79597 3.17765 12.57 0.905712 15.8712 0.905712C19.0427 0.905712 24.4568 8.26127 16.8377 26.9263C18.5113 32.4911 22.1765 32.1773 23.9297 20.7214C24.2853 18.3908 23.3313 15.2486 24.8167 14.8093C27.5279 14.006 27.8166 16.4118 29.0886 16.8135C30.4317 17.2319 31.2183 17.1942 32.507 17.4662C34.7119 17.8846 35.5739 19.0812 35.3061 21.7213C34.9839 25.0686 34.4191 29.9221 36.1429 30.5078C37.3981 30.9262 39.6491 28.3656 40.0466 26.9556C40.363 26.0104 40.5364 25.0232 40.5612 24.0268C40.5416 22.182 40.7084 20.3401 41.0591 18.5289C41.2223 17.8846 41.4022 17.4536 42.1344 17.4243C42.7369 17.4243 43.8374 17.2277 44.3185 17.6042C44.9629 18.0896 44.8834 18.5833 44.8081 19.8762C44.0591 38.3404 49.8289 29.1229 51.5569 21.7423C50.9419 13.3993 51.3645 1.04797 56.5778 0.822032C59.2974 0.713247 60.4982 2.89313 60.6321 4.52073C61.0045 9.12318 58.9125 16.7214 56.1552 21.8385C54.582 32.2986 63.0421 34.3446 64.3936 26.0225C62.1802 24.9682 59.7911 20.7088 61.7325 18.6335C62.8245 17.4703 67.3726 19.144 67.4479 22.7925C69.678 22.1941 69.9584 20.9347 70.0086 21.1439C69.3935 12.801 69.9625 1.06052 75.1926 0.834584C77.9122 0.725799 79.113 2.90568 79.2469 4.53328C79.6193 9.13573 77.5273 16.734 74.77 21.851C73.1968 32.3112 81.6569 34.3572 83.0084 26.0351C81.3682 25.7171 77.908 21.1858 79.9038 18.6461C80.9708 17.2862 85.5021 20.1105 86.0084 22.9263C88.1506 22.3197 88.4435 21.1021 88.4727 21.3071C87.8577 12.9641 88.4267 1.2237 93.6568 0.997761C96.3764 0.888976 97.5772 3.06886 97.7111 4.69646C98.0835 9.29891 95.9915 16.8971 93.2342 22.0142C91.661 32.4743 100.121 34.5203 101.473 26.1983C99.2216 25.8217 96.0333 21.0393 98.5939 18.5917C99.6232 17.6126 103.556 20.1523 104.477 23.0477C105.252 23.0106 106.014 22.829 106.724 22.5121C104.682 12.7173 106.201 0.960108 111.828 0.863875C114.87 0.809483 117.841 2.5082 116.535 11.8261C115.28 20.7172 110.811 24.4493 110.824 24.5079C111.083 25.5748 113.38 34.4869 119.167 29.784C118.829 29.079 118.572 28.3379 118.401 27.5748C117.443 22.6879 119.326 17.1649 124.443 16.2779C127.372 15.7674 130.137 17.1942 130.577 20.4117C131.296 25.6794 126.539 29.4953 124.719 30.3237C123.907 29.8635 132.062 35.0936 136.903 24.6125C137.183 24.0142 137.522 24.0644 137.962 24.374C138.288 24.5749 140.054 26.2443 139.234 27.6585ZM12.0386 24.7757C11.7917 24.0393 11.2855 22.4159 11.1097 21.713C10.1265 20.8762 9.43613 20.7172 8.18091 20.7172C5.37342 20.7172 3.72072 23.3113 3.72072 26.1104C3.72072 28.9095 5.51986 31.5036 8.32317 31.5036C10.7541 31.5036 12.6076 29.83 13.1725 27.5079C12.7373 26.6125 12.344 25.7757 12.0177 24.7757H12.0386ZM15.8042 4.75922C13.8336 4.75922 13.1641 9.46627 13.2938 13.4788C13.4171 16.2361 13.9632 18.9582 14.913 21.5498C15.0427 21.7255 15.0176 21.6126 15.1348 21.7966C18.549 14.2905 17.1306 4.75503 15.7917 4.75503L15.8042 4.75922ZM56.8748 4.90566C54.3268 4.61278 54.3435 15.2319 54.6573 17.6126C55.9794 15.4955 58.2807 5.47887 56.8748 4.90566ZM75.4897 4.90566C72.9416 4.61278 72.9583 15.2319 73.2721 17.6126C74.5859 15.4955 76.8871 5.47469 75.4813 4.90566H75.4897ZM93.958 5.0521C91.41 4.75922 91.4267 15.3783 91.7405 17.7632C93.0626 15.6461 95.3639 5.6295 93.958 5.0521ZM112.129 4.28224C108.159 5.08139 109.083 18.3239 109.686 20.646C114.364 14.2193 114.46 4.04375 112.129 4.28224ZM127.016 20.8301C126.885 20.4421 126.623 20.1118 126.275 19.8957C125.927 19.6797 125.514 19.5914 125.108 19.6461C123.112 19.918 121.179 22.4033 121.928 26.1815C122.047 26.7356 122.241 27.2707 122.506 27.7715C126.958 24.7799 127.334 22.4284 127.004 20.8301H127.016ZM42.9169 14.508C42.2013 14.5066 41.5118 14.239 40.9825 13.7574C40.4532 13.2758 40.122 12.6145 40.0533 11.9022C39.9845 11.1899 40.1832 10.4775 40.6106 9.90353C41.0379 9.32957 41.6635 8.93508 42.3656 8.79678C43.0677 8.65849 43.7962 8.78627 44.4093 9.15528C45.0224 9.5243 45.4764 10.1082 45.6829 10.7933C45.8894 11.4785 45.8337 12.216 45.5266 12.8623C45.2196 13.5087 44.683 14.0177 44.0215 14.2905C43.6711 14.4349 43.2958 14.5088 42.9169 14.508Z" fill="#2D2D2D"/>
</svg>
