<svg width="18" height="17" viewBox="0 0 18 17" fill="none" xmlns="http://www.w3.org/2000/svg">
<path d="M8.10326 1.46298C8.47008 0.719736 9.52992 0.719736 9.89674 1.46298L11.7063 5.12947C11.8519 5.42461 12.1335 5.62918 12.4592 5.67651L16.5054 6.26446C17.3256 6.38364 17.6531 7.39162 17.0596 7.97015L14.1318 10.8241C13.8961 11.0539 13.7885 11.3849 13.8442 11.7092L14.5353 15.7391C14.6754 16.556 13.818 17.179 13.0844 16.7933L9.46534 14.8906C9.17402 14.7375 8.82598 14.7375 8.53466 14.8906L4.91562 16.7933C4.18199 17.179 3.32456 16.556 3.46467 15.7391L4.15585 11.7092C4.21148 11.3849 4.10393 11.0539 3.86825 10.8241L0.940385 7.97015C0.346867 7.39162 0.674378 6.38364 1.4946 6.26446L5.54081 5.67651C5.86652 5.62918 6.14808 5.42461 6.29374 5.12947L8.10326 1.46298Z" fill="#2D2D2D"/>
</svg>
